<?xml version="1.0" encoding="UTF-8"?>
<svg id="Layer_2" data-name="Layer 2" xmlns="http://www.w3.org/2000/svg" viewBox="0 0 1764.57 1764.57">
  <defs>
    <style>
      .cls-1 {
        stroke-width: 9px;
      }

      .cls-1, .cls-2, .cls-3 {
        fill: none;
        stroke: #fff;
        stroke-linecap: round;
        stroke-linejoin: round;
      }

      .cls-4 {
        fill: #070d0d;
      }

      .cls-5, .cls-6 {
        fill: #fff;
      }

      .cls-6 {
        fill-rule: evenodd;
      }

      .cls-2 {
        stroke-width: 15px;
      }

      .cls-3 {
        stroke-width: 6px;
      }
    </style>
  </defs>
  <g id="Layer_1-2" data-name="Layer 1">
    <circle class="cls-4" cx="882.29" cy="882.29" r="882.29"/>
    <g>
      <g>
        <path class="cls-5" d="M356.59,1147.55v.11c-.01,3.59,0,7.14.04,10.68.02,1.18.04,2.36.07,3.53,1.15,55.28,9.02,104.83,21.74,149.07h0c.02.12.06.22.09.33.68,2.37,1.38,4.73,2.09,7.07.92,3.03,1.86,6.02,2.83,8.99,1.18,3.66,2.4,7.29,3.65,10.87,1.23,3.52,2.49,7.01,3.79,10.46,1.17,3.12,2.36,6.21,3.58,9.27,1.05,2.65,2.13,5.28,3.23,7.89,0,.01.01.02.01.02.61,1.47,1.23,2.95,1.86,4.41,4.66,10.83,9.62,21.26,14.85,31.31,8,15.4,16.62,29.9,25.72,43.53,4.47,6.69,9.06,13.18,13.74,19.45,4.16,5.58,8.41,11,12.71,16.25,5.45,6.64,11,13.03,16.63,19.16,4.92,5.36,9.91,10.53,14.95,15.51,6.32,6.26,12.72,12.21,19.16,17.88,4.06,3.57,8.15,7.03,12.24,10.37,6.93,5.67,13.9,11,20.85,16.02,2.84,2.05,5.75,3.97,8.72,5.78,20.95,12.71,45.1,19.38,69.74,19.38h412.23c26.97,0,53.41-7.96,75.65-23.21,43.8-30.06,87.58-71.95,123.02-127.46,10.42-16.32,20.12-33.82,28.87-52.54,3.55-7.56,6.94-15.33,10.15-23.29,3.12-7.71,6.08-15.6,8.87-23.69,17.74-51.4,28.68-110.55,29.57-178.16.02-1.1.03-2.21.04-3.32.01,0,.01-.02,0-.03.01-1.87.02-3.75.02-5.64H356.59ZM890.78,1303.5c-.96.52-1.92,1.06-2.88,1.6,1.07-.04,2.14-.07,3.21-.11l-.33-1.49Z"/>
        <path class="cls-5" d="M890.78,1303.5c-.96.52-1.92,1.06-2.88,1.6-14.47.48-29.14.76-43.97.83-2.41.01-4.82.02-7.24.02h-.58c-14.24-.01-28.34-.21-42.27-.6-.99-.02-1.98-.05-2.97-.09-17.63-.52-34.99-1.34-52.01-2.46-.32-.02-.64-.04-.95-.06-17.29-1.14-34.23-2.57-50.77-4.28-4.03-.42-8.03-.85-12.01-1.3-15.68-1.76-30.97-3.78-45.85-6.03h-.01c-16.06-2.43-31.63-5.13-46.64-8.09-2.57-.51-5.12-1.02-7.65-1.54-16.72-3.43-32.72-7.19-47.92-11.24-9.01-2.39-17.74-4.89-26.17-7.5h-.01c-8.51-2.62-16.71-5.34-24.58-8.16-7.74-2.76-15.16-5.62-22.25-8.56-6.03-2.5-11.81-5.06-17.34-7.67-4.04-1.91-7.95-3.85-11.71-5.82-1.42-.74-2.81-1.49-4.19-2.24-3.07-1.67-6.05-3.36-8.92-5.06-2.9-1.73-5.7-3.48-8.39-5.24-3.1-2.03-6.07-4.09-8.88-6.17-21.79-16.08-35.03-33.6-37.92-51.97-.03-1.17-.05-2.35-.07-3.53-.06-3.54-.09-7.1-.09-10.69v-.12c7.13-52.12,97.56-97.41,230.32-122.96,16.24-3.12,33.13-5.95,50.57-8.47,16.64-2.39,33.79-4.5,51.39-6.29,16.65-1.7,33.7-3.12,51.1-4.24,16.68-1.08,33.68-1.88,50.95-2.4,15.08-.45,30.36-.68,45.82-.68,1.69,0,3.37,0,5.06.01,17.17.05,34.12.39,50.81,1.01,232.25,8.48,414.04,69.24,424.27,144.04.27,1.87.42,3.75.45,5.64.01.01.01.02,0,.03.02.33.02.67.02,1,0,.77-.02,1.55-.06,2.32-.88,18.65-12.43,36.5-32.81,52.94-6.36,5.14-13.59,10.14-21.62,14.97-8.16,4.94-17.16,9.71-26.92,14.29-.19.09-.37.18-.56.26-11.24,5.26-23.5,10.29-36.68,15.05-17.71,6.39-37.1,12.31-57.94,17.69-52.05,13.44-113.19,23.5-180.06,29.11h0s-.01.01-.01.01h-.01c-22.56,1.89-45.77,3.28-69.51,4.13l-.33-1.49Z"/>
        <path class="cls-4" d="M1282.73,1147.55c-33.27-61.93-193.17-110.32-392.95-117.83-16.63-.63-33.54-.97-50.68-1.01-1.23-.01-2.46-.01-3.7-.01-15.97,0-31.74.26-47.28.77-17.42.56-34.55,1.44-51.33,2.62-17.68,1.23-34.98,2.79-51.82,4.65-18.07,2-35.62,4.35-52.57,7.02-18.3,2.89-35.89,6.15-52.67,9.77-99.63,21.43-170.73,55.04-191.67,94.02-4.2,7.8-6.38,15.82-6.38,24,0,13.02,5.54,25.64,15.91,37.63,2.4,2.78,5.06,5.52,7.97,8.23,2.36,2.19,4.89,4.36,7.57,6.51,2.55,2.03,5.24,4.04,8.07,6.02,1.24.88,2.5,1.75,3.8,2.61,3.36,2.24,6.91,4.45,10.63,6.62h.01c4.95,2.9,10.21,5.74,15.76,8.51,6.34,3.17,13.07,6.25,20.16,9.24,7.01,2.95,14.37,5.82,22.07,8.59,7.36,2.66,15.04,5.23,23,7.7,12.5,3.89,25.71,7.55,39.58,10.96h.01c9.02,2.22,18.32,4.34,27.87,6.34,14.95,3.14,30.53,6.01,46.66,8.57,8.24,1.32,16.63,2.56,25.15,3.71,10.81,1.47,21.85,2.81,33.08,4.01,11.14,1.2,22.47,2.27,33.98,3.19,5.57.45,11.19.86,16.84,1.24,12.37.84,24.93,1.52,37.65,2.02,6.15.25,12.34.46,18.57.62,9.1.26,18.28.42,27.53.49,3.94.03,7.89.05,11.85.05,3.55,0,7.1,0,10.63-.04,8.88-.06,17.69-.21,26.43-.44,6.89-.17,13.74-.39,20.55-.66,15-.6,29.78-1.43,44.3-2.48,83.01-6,157.33-19.17,216.03-37.33h.01c17.97-5.55,34.46-11.58,49.3-18,12.05-5.22,23-10.7,32.75-16.43.16-.09.33-.19.49-.29,8.95-5.27,16.88-10.74,23.7-16.39,7.17-5.93,13.11-12.05,17.75-18.33,5.35-7.25,8.95-14.71,10.64-22.34.75-3.34,1.13-6.72,1.13-10.13,0-8.18-2.18-16.2-6.38-24Z"/>
      </g>
      <path class="cls-2" d="M573.68,316.31s8.53,30.34,12.17,61.31c0,.01.01.01.01.02.19,1.68.37,3.36.54,5.04.05.47.09.95.12,1.42.44,5.11.46,10.21.11,15.28-.04.52-.08,1.05-.13,1.57-1.19,14-12.93,35.73-19.48,48.32"/>
      <path class="cls-2" d="M877.44,316.31s2.91,3.53,6.88,25.61"/>
      <path class="cls-3" d="M826.08,314.44s6.11,21.72,10.18,47.16"/>
      <path class="cls-3" d="M775.74,313.28s6.75,24.01,10.8,51.11c.75,5.02,1.41,10.16,1.91,15.26"/>
      <path class="cls-3" d="M724.89,316.31s7.44,26.46,11.38,55.18c.52,3.71.97,7.46,1.34,11.19.3,3.01.46,6,.47,9"/>
      <path class="cls-3" d="M674.04,316.31s8.17,29.06,11.93,59.32c.29,2.35.52,4.7.79,7.05.83,7.16,2.73,17.44.21,24.08"/>
      <path class="cls-3" d="M623.19,316.31s8.95,31.83,12.43,63.56c.1.94.2,1.87.29,2.81.47,4.76.59,9.53.38,14.27-.72,15.38.67,15.8-6.5,29.59"/>
      <g>
        <path class="cls-2" d="M556.53,512.7c-2.23,18.02-.32,19.14.5,31.15.71,10.44,2.95,20.71,6.71,30.47,9.7,25.19,30.74,88.26,20.45,138.8-1.68,8.23-4.54,16.17-8.17,23.75-15.22,31.7-21.31,57.57-23.37,76.56-1.88,17.35.74,34.88,7.45,50.98,13.33,31.96,41.8,112.85,22.18,181.54-.63,2.22-1.41,4.4-2.2,6.58-33.78,92.88,11.12,270.27,11.12,270.27"/>
        <path class="cls-2" d="M872.85,1187.05c-.9-10.51-1.08-17.43-1.43-28.15-.12-3.78-.2-7.56-.24-11.34-.36-34.33,2.86-68.08,12.66-95.03.79-2.18,1.57-4.36,2.2-6.58,1.53-5.34,2.76-10.76,3.73-16.22,1.55-8.66,2.44-17.44,2.78-26.21,2.27-56.82-18.04-113.58-28.69-139.11-6.71-16.1-9.34-33.63-7.45-50.98,2.06-18.99,8.15-44.86,23.37-76.56,3.63-7.58,6.49-15.52,8.16-23.75,10.3-50.54-10.74-113.61-20.44-138.8-3.76-9.76-6-20.03-6.71-30.47-1.65-24.15,2.79-85.67,21.45-121.62"/>
        <path class="cls-3" d="M827.45,1219.76c-.51-3.62-1-7.3-1.46-11.01-1.19-9.44-2.23-19.13-3.04-28.93-.59-7.05-1.06-14.17-1.39-21.28-.17-3.66-.3-7.33-.38-10.99-.84-34.42,2.05-68.17,11.82-95.03.79-2.18,1.57-4.36,2.2-6.58,1.62-5.67,2.91-11.43,3.9-17.23,1.5-8.67,2.35-17.44,2.65-26.21,1.99-56.48-18.14-112.72-28.73-138.1-6.71-16.1-9.34-33.63-7.45-50.98,2.06-18.99,8.15-44.86,23.37-76.56,3.63-7.58,6.49-15.52,8.16-23.75,10.3-50.54-10.74-113.61-20.44-138.8-3.76-9.76-6-20.03-6.71-30.47-1.65-24.15-1.06-66.67,17.6-102.62"/>
        <path class="cls-3" d="M771.01,454.98c-18.66,35.95-13.56,64.71-11.91,88.86.71,10.44,2.95,20.71,6.71,30.47,9.7,25.19,30.74,88.26,20.44,138.8-1.67,8.23-4.53,16.17-8.16,23.75-15.22,31.7-21.31,57.57-23.37,76.56-1.88,17.35.74,34.88,7.45,50.98,10.63,25.48,30.88,82.06,28.7,138.77-.33,8.8-1.2,17.61-2.75,26.3-.97,5.55-2.22,11.05-3.77,16.47-.63,2.22-1.41,4.4-2.2,6.58-9.61,26.42-12.51,59.37-11.75,93.01.01.67.03,1.34.04,2.02.12,4.11.28,8.24.49,12.36.15,2.86.32,5.72.52,8.58.35,5.3.79,10.59,1.28,15.84.59,6.29,1.27,12.52,2.02,18.65.97,7.95,2.06,15.74,3.22,23.28,1.14,7.48,2.35,14.71,3.6,21.62l.27,1.5"/>
        <path class="cls-3" d="M738,1303.2c-.03-.15-.06-.31-.09-.46"/>
        <path class="cls-3" d="M732.37,1275.16c-.77-4.13-1.54-8.48-2.32-13.02-1.06-6.18-2.12-12.71-3.13-19.51-1.04-6.93-2.03-14.13-2.95-21.55-.82-6.56-1.57-13.27-2.24-20.11h0c-.71-7.22-1.32-14.56-1.81-21.95-.35-5.26-.64-10.55-.84-15.84-.01-.13-.02-.25-.02-.38h0c-.2-5.09-.33-10.18-.38-15.25v-.04c-.08-7-.01-13.97.25-20.85.97-26.99,4.59-52.75,12.37-74.14.79-2.18,1.57-4.36,2.2-6.58,1.3-4.57,2.4-9.19,3.29-13.85,1.69-8.75,2.69-17.63,3.13-26.52,2.85-57.5-17.82-115.33-28.6-141.17-6.71-16.1-9.33-33.63-7.45-50.98,2.06-18.99,8.15-44.86,23.37-76.56,3.63-7.58,6.49-15.52,8.17-23.75,10.29-50.54-10.75-113.61-20.45-138.8-3.76-9.76-6-20.03-6.71-30.47-1.64-24.15-7.57-42.03,11.09-77.98"/>
        <path class="cls-3" d="M692.79,1322.79l-.21-.84"/>
        <path class="cls-3" d="M662.44,485.42c-10.44,30.8-6.39,38.59-5.04,58.42.72,10.44,2.95,20.71,6.71,30.47,9.71,25.19,30.74,88.26,20.45,138.8-1.68,8.23-4.54,16.17-8.17,23.75-15.21,31.7-21.31,57.57-23.37,76.56-1.88,17.35.74,34.88,7.45,50.98,11.04,26.48,32.47,86.53,28.35,145.41-.63,9.05-1.87,18.07-3.85,26.93-.68,3.09-1.45,6.16-2.32,9.2-.63,2.22-1.41,4.4-2.2,6.58-6.82,18.77-10.39,40.99-11.73,64.5-.38,6.57-.58,13.24-.63,19.96-.02,3.51-.01,7.04.05,10.57.02,1.53.05,3.07.09,4.61.12,5.06.31,10.13.58,15.2,0,.32.03.64.05.96.36,6.91.85,13.8,1.44,20.63.57,6.64,1.23,13.23,1.96,19.69.81,7.15,1.71,14.17,2.65,20.98.91,6.5,1.86,12.82,2.84,18.9.9,5.6,1.82,11,2.74,16.15,1.34,7.55,2.69,14.57,3.97,20.94h0c.56,2.78,1.11,5.44,1.64,7.95"/>
        <path class="cls-3" d="M607.58,498.22c-5.31,24.59-2.11,29.79-1.04,45.62.72,10.44,2.95,20.71,6.71,30.47,9.71,25.19,30.74,88.26,20.45,138.8-1.68,8.23-4.54,16.17-8.17,23.75-15.21,31.7-21.31,57.57-23.37,76.56-1.88,17.35.74,34.88,7.45,50.98,13.33,31.96,41.8,112.85,22.18,181.54-.63,2.22-1.41,4.4-2.2,6.58-33.77,92.88,4.27,261.89,4.27,261.89"/>
      </g>
      <g>
        <path class="cls-6" d="M570.52,385.5v14.65c-9.39.45-18.78.89-28.18,1.32-1.95.09-3.48-1.18-3.44-2.86l.15-7.32c.03-1.68,1.62-3.15,3.56-3.33,9.31-.83,18.61-1.65,27.91-2.46Z"/>
        <path class="cls-6" d="M1400.39,350.59c-160.13,10.81-319.23,21.27-478.41,30.7,30.41-10.36,60.8-20.77,91.17-31.2,129.01-9.48,258.08-18.38,387.81-27.14,1.98-.13,3.57,1.15,3.53,2.85-.15,7.15-.3,14.3-.44,21.45-.03,1.7-1.68,3.2-3.66,3.34h0Z"/>
        <path class="cls-6" d="M1405.35,205.47c-168.45,58.63-335.9,116.6-503.92,173.53-3.76,1.27-7.51,2.55-11.27,3.82-16.88,5.71-33.77,11.42-50.67,17.12h-.01c-17.95,6.04-35.89,12.08-53.86,18.1-19.28,6.47-38.56,12.92-57.87,19.34h-.01c-19.9,6.64-39.83,13.26-59.77,19.86-18.79,6.23-37.61,12.44-56.44,18.62-17.58,5.79-35.17,11.56-52.79,17.31-4.36,1.43-8.72,2.85-13.09,4.28-1.66.54-3.32,1.08-4.98,1.62-1.97.65-4.01-.08-4.6-1.63-.85-2.25-1.7-4.5-2.55-6.76-.59-1.55.49-3.36,2.44-4.08,3.84-1.42,7.67-2.84,11.51-4.26,4.75-1.76,9.5-3.52,14.25-5.27,18.55-6.86,37.1-13.69,55.65-20.5,20.31-7.45,40.62-14.88,60.93-22.28,19.19-7.01,38.38-13.98,57.57-20.93,17.68-6.42,35.36-12.81,53.04-19.19,16.56-5.97,33.12-11.93,49.68-17.87,16.09-5.78,32.19-11.55,48.29-17.31,4.25-1.52,8.49-3.03,12.74-4.55,164.8-58.86,329.84-116.63,496.08-174.5,1.99-.69,4.1.03,4.69,1.6,2.5,6.61,4.99,13.21,7.49,19.81.6,1.58-.54,3.43-2.53,4.12Z"/>
      </g>
      <path class="cls-1" d="M1289.11,1182.6c-110.09-90.54-258.04-92.94-441.91,24.21-4.83,3.07-9.68,6.22-14.55,9.46-2.82,1.88-5.65,3.78-8.49,5.72-1.97,1.33-3.94,2.68-5.91,4.04-2.11,1.47-4.22,2.91-6.33,4.34-4.75,3.22-9.49,6.32-14.22,9.32-4.94,3.13-9.86,6.14-14.76,9.05-6.01,3.55-11.99,6.94-17.94,10.16-6.24,3.39-12.45,6.59-18.61,9.62h-.01c-6.15,3.03-12.26,5.89-18.32,8.59h-.01c-9.71,4.32-19.31,8.23-28.77,11.75-101.32,37.79-187.33,32.34-232.52,24.81-10.62-1.77-18.99-3.65-24.76-5.12-6.05-1.53-9.27-2.6-9.27-2.6"/>
      <path class="cls-1" d="M1289.11,1213.25c-107.55-88.44-251.24-92.78-429.25,16.29-4.21,2.58-8.44,5.22-12.7,7.94-2.22,1.41-4.45,2.85-6.69,4.31-3.76,2.43-7.54,4.93-11.33,7.47-3.61,2.43-7.24,4.9-10.89,7.42-.26.18-.51.36-.77.53-4.02,2.79-8.03,5.5-12.03,8.12-4.87,3.21-9.73,6.29-14.58,9.27-4.98,3.06-9.95,6.01-14.89,8.83-4.77,2.74-9.53,5.36-14.26,7.88-7.1,3.79-14.15,7.34-21.15,10.68-169.44,80.8-307.84,34.61-307.84,34.61"/>
      <path class="cls-1" d="M432.73,1367.26s182.86,61.03,385.52-79.92c197.33-136.38,355.05-138.67,470.86-43.43"/>
      <path class="cls-1" d="M432.73,1397.91s182.86,61.03,385.52-79.92c197.33-136.38,355.05-138.67,470.86-43.43"/>
      <path class="cls-1" d="M1289.11,1305.22c-26.62-21.89-55.45-38.63-86.46-49.76-1.33-.49-2.66-.96-4-1.41-86.16-29.45-188.97-16.08-307.87,49.45-.96.52-1.92,1.06-2.88,1.6-5.12,2.84-10.27,5.79-15.44,8.83-4.32,2.54-8.65,5.15-13.01,7.82-1.59.98-3.19,1.96-4.79,2.96-.12.08-.25.15-.38.24-.3.19-.61.38-.93.58-.7.44-1.41.88-2.12,1.33-.6.37-1.19.75-1.79,1.13-2.21,1.39-4.42,2.81-6.64,4.25-2.57,1.65-5.15,3.33-7.73,5.04-2.56,1.68-5.12,3.39-7.69,5.13-3.03,2.04-6.08,4.12-9.13,6.23-.7.49-1.4.97-2.09,1.45-53.35,36.77-105.3,59.58-152.85,73.24,0,0-.01,0-.02,0-36.07,10.37-69.62,15.48-99.33,17.41-23.04,1.5-43.77,1.1-61.59-.22h-.01c-18.69-1.39-34.18-3.8-45.76-6.09"/>
      <path class="cls-1" d="M1281.89,1330.1c-38.4-29.8-81.27-49.1-128.54-56.64h0c-4.17-.67-8.38-1.24-12.63-1.72-54.44-6.18-114.48,2.91-180.06,29.11h-.01s-.01,0-.01,0h-.01c-7.69,3.07-15.46,6.38-23.31,9.93-26.77,12.1-54.43,26.99-82.96,44.78-.38.23-.75.47-1.13.7-.47.3-.95.59-1.42.9-1.59.99-3.18,1.99-4.77,3.02-.45.28-.91.57-1.36.86-.65.42-1.31.84-1.96,1.26-.74.47-1.49.95-2.23,1.44-2.94,1.9-5.9,3.84-8.86,5.81-4.77,3.17-9.56,6.41-14.37,9.74-2.77,1.92-5.53,3.81-8.29,5.66-21.23,14.23-42.21,26.27-62.76,36.44-.02,0-.05.02-.07.03-15.11,7.46-29.98,13.91-44.55,19.45h-.02c-20.52,7.83-40.42,13.87-59.51,18.46-27.4,6.6-53.11,10.23-76.49,11.88"/>
      <path class="cls-1" d="M522.49,1502.84c26.3.73,57.35-.79,91.73-6.85,44.22-7.77,93.95-23.05,146.16-50.69,19.01-10.07,38.35-21.77,57.87-35.35,6.86-4.74,13.67-9.32,20.43-13.73,2.22-1.45,4.44-2.89,6.65-4.29,1.67-1.09,3.34-2.15,5.01-3.19.24-.16.49-.32.73-.46.88-.57,1.77-1.12,2.65-1.67.19-.12.37-.23.56-.34,168.26-104.93,306.13-109.06,412.07-36.84"/>
      <path class="cls-1" d="M566.56,1532.53c34.43-2.43,73.89-9.14,116.38-23.31,39.8-13.28,82.27-33.11,125.78-62.12,3.17-2.11,6.35-4.28,9.53-6.49,1.44-1,2.88-1.99,4.32-2.96,7.76-5.31,15.46-10.41,23.1-15.29,2.34-1.5,4.67-2.98,6.99-4.44.12-.07.25-.15.37-.23.46-.28.92-.57,1.38-.86,156.86-97.76,287.29-107.93,390.06-50.29"/>
      <path class="cls-1" d="M847.2,1206.81c-38.1-54.48-124.06-92.47-223.99-92.47-135.3,0-244.98,69.64-244.98,155.54,0,3.25.16,6.48.47,9.68h0c.24,2.54.58,5.05,1.02,7.55v.02c.42,2.41.92,4.8,1.52,7.18.89,3.58,1.97,7.13,3.24,10.63h0c1.18,3.25,2.51,6.45,4.01,9.61,1.62,3.46,3.44,6.87,5.43,10.22,1.84,3.1,3.83,6.15,5.97,9.15,1.88,2.63,3.87,5.23,5.97,7.78,2.81,3.42,5.82,6.78,9.02,10.05,24.97,25.56,61.23,46.17,104.41,59.03t.02.01h.06c31.53,9.38,66.72,14.62,103.84,14.62,13.65,0,27.04-.71,40.08-2.07.01,0,.02-.01.02-.01,66.46-6.94,123.91-30.87,160.91-64.53,3.12-2.83,6.1-5.74,8.92-8.71,2.03-2.13,3.98-4.3,5.84-6.5,2.02-2.38,3.95-4.79,5.77-7.24h0c1.78-2.38,3.46-4.79,5.04-7.23.49-.75.97-1.5,1.44-2.26.63-1.03,1.25-2.06,1.85-3.09.46-.78.9-1.55,1.33-2.33"/>
      <path class="cls-1" d="M859.45,1321.75c-1.08,6.36-2.76,12.61-5.01,18.72-.4,1.1-.82,2.19-1.26,3.27h0c-.94,2.35-1.97,4.68-3.08,6.97-.56,1.18-1.15,2.35-1.76,3.51h-.01s-.01.04-.02.06c-.67,1.29-1.38,2.57-2.1,3.85h0c-.81,1.41-1.63,2.8-2.5,4.18-.53.87-1.07,1.72-1.64,2.57-2,3.08-4.16,6.11-6.47,9.08-23.1,29.8-60.61,54.15-106.65,69.25-26.23,8.62-55.22,14.22-85.9,16.13-7.73.48-15.56.73-23.48.73-42.53,0-82.5-7.09-117.2-19.54,17.82,1.32,38.55,1.72,61.59.22-41.1-6.25-78.14-19.26-108.13-37.12-20.1-11.97-37.02-26.1-49.89-41.83,2.33-2.86,4.8-5.67,7.39-8.43.51-.54,1.02-1.08,1.55-1.62-3.2-3.27-6.21-6.63-9.02-10.05-2.1-2.55-4.09-5.15-5.97-7.78-2.14-3-4.13-6.05-5.97-9.15-1.99-3.35-3.81-6.76-5.43-10.22-1.5-3.16-2.83-6.36-4.01-9.6h0c-1.27-3.51-2.35-7.06-3.24-10.64-.6-2.38-1.1-4.77-1.52-7.18v-.02c3.87-22.41,15.13-43.36,32.17-61.86.41-.44.83-.89,1.24-1.33,33.34-35.38,87.95-61.51,152.41-71.01,15.93-2.35,32.47-3.68,49.43-3.88,1.53-.02,3.06-.03,4.6-.03,15.84,0,31.32.98,46.3,2.86,17.88,2.24,35.06,5.75,51.29,10.38,3.99,1.14,7.93,2.34,11.81,3.61,14.52,4.77,28.18,10.46,40.82,16.94,21.38,10.97,39.8,24.23,54.37,39.2"/>
      <path class="cls-1" d="M832.65,1216.27c-40.59-49.05-120.78-82.44-213.08-82.44-128.17,0-233.01,64.4-240.87,145.73h0c.24,2.54.58,5.05,1.02,7.55v.02c.42,2.41.92,4.8,1.52,7.18.89,3.58,1.97,7.13,3.24,10.63h0c1.18,3.25,2.51,6.45,4.01,9.61,1.62,3.46,3.44,6.87,5.43,10.22,1.84,3.1,3.83,6.15,5.97,9.15,1.88,2.63,3.87,5.23,5.97,7.78,2.81,3.42,5.82,6.78,9.02,10.05-.53.54-1.04,1.08-1.55,1.62-2.59,2.76-5.06,5.57-7.39,8.43,12.87,15.73,29.79,29.86,49.89,41.83,29.99,17.86,67.03,30.87,108.13,37.12,17.85,2.71,36.47,4.15,55.61,4.15,46.83,0,90.55-8.6,127.56-23.47.02-.01.05-.02.07-.03,24.1-9.69,45.35-22.05,62.76-36.44,7.33-6.05,13.99-12.46,19.88-19.19,2.66-3.02,5.16-6.11,7.5-9.26,1.71-2.3,3.34-4.64,4.87-7.01,1.7-2.6,3.29-5.23,4.76-7.9,1.47-2.65,2.83-5.34,4.07-8.05h0c.93-2.02,1.79-4.04,2.58-6.08.2-.51.4-1.02.59-1.53h0c.16-.42.31-.82.45-1.23"/>
      <path class="cls-1" d="M818.25,1409.95c6.86-4.74,13.67-9.32,20.43-13.73-11.07,18.84-27.59,35.91-48.31,50.39-43.45,30.39-105.34,49.39-174.03,49.39-.71,0-1.41,0-2.12-.01,44.22-7.77,93.95-23.05,146.16-50.69,19.01-10.07,38.35-21.77,57.87-35.35Z"/>
      <path class="cls-1" d="M853.08,1323.77c.1.58.19,1.17.27,1.76.1.64.19,1.29.27,1.94.1.77.19,1.54.27,2.31.36,3.53.55,7.1.55,10.69,0,3.25-.15,6.49-.45,9.69-.2,2.05-.45,4.09-.77,6.11-.21,1.4-.45,2.79-.72,4.17-.61,3.1-1.36,6.17-2.25,9.21-.76,2.64-1.63,5.25-2.59,7.83-1.28,3.41-2.73,6.78-4.34,10.1-1.76-3.62-3.71-7.18-5.87-10.68-16.83,27.45-45.28,51.04-81.41,68.16h-.01c-39.23,18.6-87.5,29.57-139.69,29.57-17.07,0-33.72-1.17-49.78-3.41-41.75-5.79-79.45-18.74-109.96-36.78,11.58,2.29,27.07,4.7,45.76,6.09h.01c17.82,1.32,38.55,1.72,61.59.22-41.1-6.25-78.14-19.26-108.13-37.12-20.1-11.97-37.02-26.1-49.89-41.83,2.33-2.86,4.8-5.67,7.39-8.43.51-.54,1.02-1.08,1.55-1.62-3.2-3.27-6.21-6.63-9.02-10.05-2.1-2.55-4.09-5.15-5.97-7.78-2.14-3-4.13-6.05-5.97-9.15-1.99-3.35-3.81-6.76-5.43-10.22-1.5-3.16-2.83-6.36-4.01-9.6h0c.63-1.79,1.31-3.53,2.03-5.28h.01v-.02c9.08-21.88,25.29-41.84,46.9-58.76l.03-.03c.72-.56,1.45-1.12,2.19-1.69.36-.26.71-.53,1.07-.8,33.65-25.24,79.55-43.32,131.66-50.28,5.15-.69,10.34-1.27,15.6-1.73h.04c10.57-.95,21.36-1.43,32.33-1.43h1.16c17.62.06,34.79,1.36,51.31,3.79,18.45,2.71,36.08,6.82,52.63,12.15,20.41,6.56,39.15,14.99,55.74,24.92h.01c7.27,4.35,14.12,8.99,20.51,13.9"/>
      <path class="cls-1" d="M790.87,1274.6c-4.98,3.06-9.95,6.01-14.89,8.83"/>
      <path class="cls-1" d="M842.8,1332.24c.68,1.36,1.33,2.72,1.95,4.1h0c.79,1.75,1.53,3.49,2.22,5.26,1.06,2.69,2.01,5.41,2.84,8.15.11.32.2.64.29.96.64,2.14,1.21,4.29,1.7,6.46.25,1.09.48,2.18.7,3.27.63,3.2,1.1,6.43,1.43,9.69.34,3.4.51,6.82.51,10.27,0,1.97-.06,3.92-.16,5.87-.07,1.12-.15,2.24-.25,3.35-.24,2.63-.57,5.24-1.01,7.83-.56,3.4-1.3,6.77-2.2,10.1-1.35,5.03-3.07,9.97-5.15,14.81-3.71,8.67-8.54,17.03-14.38,25.02-38.32,52.38-120.16,88.56-214.95,88.56-17.07,0-33.72-1.17-49.78-3.41,34.43-2.43,73.89-9.14,116.38-23.31-21.13,4.02-43.48,6.17-66.6,6.17-33.32,0-65.05-4.47-93.85-12.55,26.3.73,57.35-.79,91.73-6.85,44.22-7.77,93.95-23.05,146.16-50.69,19.01-10.07,38.35-21.77,57.87-35.35,6.86-4.74,13.67-9.32,20.43-13.73,1.68-2.84,3.22-5.72,4.64-8.64-1.76-3.62-3.71-7.18-5.87-10.68-16.83,27.45-45.28,51.04-81.41,68.16h-.01c-39.23,18.6-87.5,29.57-139.69,29.57-17.07,0-33.72-1.17-49.78-3.41-41.75-5.79-79.45-18.74-109.96-36.78,11.58,2.29,27.07,4.7,45.76,6.09h.01c17.82,1.32,38.55,1.72,61.59.22-41.1-6.25-78.14-19.26-108.13-37.12-20.1-11.97-37.02-26.1-49.89-41.83,2.33-2.86,4.8-5.67,7.39-8.43.51-.54,1.02-1.08,1.55-1.62-3.2-3.27-6.21-6.63-9.02-10.05-2.1-2.55-4.09-5.15-5.97-7.78-2.14-3-4.13-6.05-5.97-9.15,15.87-27.07,43-50.51,77.64-67.85,1.57-.79,3.14-1.56,4.74-2.32,28.83-13.72,62.55-23.31,99.14-27.44,13.29-1.51,26.95-2.29,40.9-2.29,2.71,0,5.42.03,8.11.09,17.91.39,35.32,2.07,52.01,4.92,19.29,3.27,37.63,8.09,54.68,14.23,11.95,4.3,23.27,9.26,33.86,14.79-6.24,3.39-12.45,6.59-18.61,9.62"/>
      <path class="cls-1" d="M728.06,1277.11h-.01c-33.31-11.59-71.33-18.16-111.71-18.16-31.57,0-61.71,4.01-89.28,11.31-3.52.93-7,1.91-10.43,2.95-28.32,8.54-53.64,20.61-74.63,35.34-14.15,9.93-26.33,21.06-36.14,33.15,2.81,3.42,5.82,6.78,9.02,10.05-.53.54-1.04,1.08-1.55,1.62-2.59,2.76-5.06,5.57-7.39,8.43,12.87,15.73,29.79,29.86,49.89,41.83,29.99,17.86,67.03,30.87,108.13,37.12-23.04,1.5-43.77,1.1-61.59-.22h-.01c-18.69-1.39-34.18-3.8-45.76-6.09,30.51,18.04,68.21,30.99,109.96,36.78,16.06,2.24,32.71,3.41,49.78,3.41,52.19,0,100.46-10.97,139.69-29.57h.01c36.13-17.12,64.58-40.71,81.41-68.16,2.16,3.5,4.11,7.06,5.87,10.68-1.42,2.92-2.96,5.8-4.64,8.64-6.76,4.41-13.57,8.99-20.43,13.73-19.52,13.58-38.86,25.28-57.87,35.35-52.21,27.64-101.94,42.92-146.16,50.69-34.38,6.06-65.43,7.58-91.73,6.85,28.8,8.08,60.53,12.55,93.85,12.55,23.12,0,45.47-2.15,66.6-6.17-42.49,14.17-81.95,20.88-116.38,23.31,16.06,2.24,32.71,3.41,49.78,3.41,94.79,0,176.63-36.18,214.95-88.56,5.84-7.99,10.67-16.35,14.38-25.02,2.34-1.5,4.67-2.98,6.99-4.44.12-.07.25-.15.37-.23.38,2.28.69,4.59.92,6.9.25-2.57.4-5.16.46-7.76.02-.78.03-1.56.03-2.34,0-2.63-.1-5.24-.3-7.83-.23-3.1-.61-6.17-1.12-9.21-.51-3.09-1.16-6.15-1.95-9.17-.09-.37-.19-.74-.29-1.1-.89-3.27-1.93-6.51-3.12-9.7-1.35-3.61-2.89-7.17-4.63-10.68-.31-.64-.63-1.28-.96-1.92-.19-.38-.39-.75-.59-1.13-1.29-2.44-2.67-4.86-4.14-7.24-1.33-2.17-2.73-4.31-4.2-6.42-1.82-2.6-3.74-5.16-5.76-7.68-5.21-6.5-11.1-12.72-17.61-18.63"/>
      <path class="cls-1" d="M771.43,1316.67c8.8,4.94,17.03,10.29,24.64,16,7.3,5.48,14.02,11.3,20.09,17.42,2.83,2.84,5.52,5.74,8.06,8.71,1.96,2.29,3.84,4.61,5.62,6.97.95,1.25,1.88,2.51,2.78,3.79,1.03,1.45,2.02,2.92,2.98,4.4.64.97,1.26,1.95,1.85,2.94-16.83,27.45-45.28,51.04-81.41,68.16h-.01c-39.23,18.6-87.5,29.57-139.69,29.57-17.07,0-33.72-1.17-49.78-3.41-41.75-5.79-79.45-18.74-109.96-36.78,11.58,2.29,27.07,4.7,45.76,6.09h.01c17.82,1.32,38.55,1.72,61.59.22-41.1-6.25-78.14-19.26-108.13-37.12-20.1-11.97-37.02-26.1-49.89-41.83,2.33-2.86,4.8-5.67,7.39-8.43.51-.54,1.02-1.08,1.55-1.62,14-14.48,31.56-27.35,51.88-38.08,25.89-13.67,56.27-23.87,89.45-29.5h.01c6.16-1.06,12.41-1.95,18.76-2.67,13.43-1.54,27.25-2.34,41.36-2.34,29.17,0,57.11,3.43,82.94,9.7"/>
      <path class="cls-1" d="M853.03,1417.69c-.12.08-.25.16-.37.23-2.32,1.46-4.65,2.94-6.99,4.44-3.71,8.67-8.54,17.03-14.38,25.02-38.32,52.38-120.16,88.56-214.95,88.56-17.07,0-33.72-1.17-49.78-3.41,34.43-2.43,73.89-9.14,116.38-23.31-21.13,4.02-43.48,6.17-66.6,6.17-33.32,0-65.05-4.47-93.85-12.55,26.3.73,57.35-.79,91.73-6.85,44.22-7.77,93.95-23.05,146.16-50.69,19.01-10.07,38.35-21.77,57.87-35.35,6.86-4.74,13.67-9.32,20.43-13.73,1.68-2.84,3.22-5.72,4.64-8.64.7,1.44,1.37,2.89,2.01,4.35.77,1.77,1.5,3.55,2.17,5.35,1.28,3.38,2.39,6.8,3.32,10.27.83,3.04,1.51,6.11,2.06,9.21.05.31.1.62.15.93Z"/>
      <path class="cls-1" d="M746.39,1268.52h-.01c-34.01-14.51-74.04-23.5-117.12-25-4.28-.15-8.58-.23-12.92-.23-12.28,0-24.34.61-36.12,1.78-28.4,2.82-55.16,8.92-79.33,17.69h-.01c-2.45.89-4.86,1.81-7.25,2.75-40.84,16.07-73.69,39.92-93.74,68.41,1.88,2.63,3.87,5.23,5.97,7.78,2.81,3.42,5.82,6.78,9.02,10.05-.53.54-1.04,1.08-1.55,1.62-2.59,2.76-5.06,5.57-7.39,8.43,12.87,15.73,29.79,29.86,49.89,41.83,29.99,17.86,67.03,30.87,108.13,37.12-23.04,1.5-43.77,1.1-61.59-.22h-.01c-18.69-1.39-34.18-3.8-45.76-6.09,30.51,18.04,68.21,30.99,109.96,36.78,16.06,2.24,32.71,3.41,49.78,3.41,52.19,0,100.46-10.97,139.69-29.57h.01c36.13-17.12,64.58-40.71,81.41-68.16,2.16,3.5,4.11,7.06,5.87,10.68-1.42,2.92-2.96,5.8-4.64,8.64-6.76,4.41-13.57,8.99-20.43,13.73-19.52,13.58-38.86,25.28-57.87,35.35-52.21,27.64-101.94,42.92-146.16,50.69-34.38,6.06-65.43,7.58-91.73,6.85,28.8,8.08,60.53,12.55,93.85,12.55,23.12,0,45.47-2.15,66.6-6.17-42.49,14.17-81.95,20.88-116.38,23.31,16.06,2.24,32.71,3.41,49.78,3.41,94.79,0,176.63-36.18,214.95-88.56,5.84-7.99,10.67-16.35,14.38-25.02,2.34-1.5,4.67-2.98,6.99-4.44.08-.39.15-.77.22-1.16.58-3.33,1.01-6.7,1.26-10.1.2-2.59.3-5.2.3-7.83,0-3.09-.14-6.16-.41-9.21-.09-1.01-.19-2.01-.31-3.01-.29-2.44-.67-4.86-1.13-7.27-.63-3.26-1.41-6.5-2.34-9.69-.92-3.19-2-6.35-3.22-9.46-.16-.41-.32-.82-.49-1.22-.1-.28-.22-.56-.33-.83h0c-1.21-2.93-2.54-5.8-4-8.64-1.01-1.99-2.09-3.96-3.23-5.91-1.23-2.13-2.54-4.23-3.91-6.31-4.57-6.92-9.88-13.58-15.88-19.93"/>
      <path class="cls-1" d="M849.44,1327.99c.12.38.24.75.35,1.13.45,1.47.87,2.94,1.25,4.42h0c.52,1.97.98,3.94,1.37,5.93.29,1.42.54,2.84.77,4.27h0c.33,2.13.6,4.27.81,6.42.16,1.79.29,3.6.36,5.41.06,1.42.09,2.85.09,4.28,0,3.45-.17,6.88-.51,10.28-.31,3.1-.76,6.17-1.34,9.21-.5,2.64-1.11,5.25-1.81,7.84-.14.52-.29,1.04-.44,1.56-.82,2.87-1.77,5.72-2.84,8.54-5.42,14.34-13.89,27.9-24.93,40.37-2.89,3.25-5.95,6.43-9.17,9.53-30.75,29.56-76.68,51.83-130.46,62.04-21.13,4.02-43.48,6.17-66.6,6.17-33.32,0-65.05-4.47-93.85-12.55,26.3.73,57.35-.79,91.73-6.85,44.22-7.77,93.95-23.05,146.16-50.69,19.01-10.07,38.35-21.77,57.87-35.35,6.86-4.74,13.67-9.32,20.43-13.73,1.68-2.84,3.22-5.72,4.64-8.64-1.76-3.62-3.71-7.18-5.87-10.68-16.83,27.45-45.28,51.04-81.41,68.16h-.01c-39.23,18.6-87.5,29.57-139.69,29.57-17.07,0-33.72-1.17-49.78-3.41-41.75-5.79-79.45-18.74-109.96-36.78,11.58,2.29,27.07,4.7,45.76,6.09h.01c17.82,1.32,38.55,1.72,61.59.22-41.1-6.25-78.14-19.26-108.13-37.12-20.1-11.97-37.02-26.1-49.89-41.83,2.33-2.86,4.8-5.67,7.39-8.43.51-.54,1.02-1.08,1.55-1.62-3.2-3.27-6.21-6.63-9.02-10.05-2.1-2.55-4.09-5.15-5.97-7.78-2.14-3-4.13-6.05-5.97-9.15-1.99-3.35-3.81-6.76-5.43-10.22,11.99-25.76,33.93-48.69,62.92-66.88.87-.55,1.75-1.09,2.64-1.63,32.08-19.52,72.43-33.33,117.24-38.94,14.59-1.82,29.65-2.78,45.05-2.78,1.33,0,2.66.01,3.99.02,17.74.19,35,1.65,51.59,4.24,18.79,2.94,36.71,7.32,53.46,12.97,21.25,7.17,40.64,16.36,57.56,27.19"/>
      <path class="cls-1" d="M854.41,1321.44c-.02,1.17-.07,2.35-.13,3.51-.02.33-.04.66-.07.98h0c-.08,1.3-.19,2.57-.32,3.85-.34,3.26-.83,6.49-1.48,9.69-.69,3.47-1.56,6.89-2.6,10.28-.45,1.5-.94,2.99-1.47,4.47h-.01s-.01.04-.02.06c-.54,1.57-1.14,3.14-1.77,4.69-.28.69-.57,1.39-.87,2.08-.82,1.93-1.7,3.85-2.64,5.75-1.68,3.42-3.54,6.79-5.58,10.1-16.83,27.45-45.28,51.04-81.41,68.16h-.01c-39.23,18.6-87.5,29.57-139.69,29.57-17.07,0-33.72-1.17-49.78-3.41-41.75-5.79-79.45-18.74-109.96-36.78,11.58,2.29,27.07,4.7,45.76,6.09h.01c17.82,1.32,38.55,1.72,61.59.22-41.1-6.25-78.14-19.26-108.13-37.12-20.1-11.97-37.02-26.1-49.89-41.83,2.33-2.86,4.8-5.67,7.39-8.43.51-.54,1.02-1.08,1.55-1.62-3.2-3.27-6.21-6.63-9.02-10.05-2.1-2.55-4.09-5.15-5.97-7.78-2.14-3-4.13-6.05-5.97-9.15-1.99-3.35-3.81-6.76-5.43-10.22-1.5-3.16-2.83-6.36-4.01-9.6h0c-1.27-3.51-2.35-7.06-3.24-10.64,5.76-23.51,19.59-45.26,39.57-64,.13-.12.26-.25.39-.37,33.89-31.6,85.32-54.58,145.06-62.93,15.9-2.23,32.39-3.41,49.29-3.45h.79c17.26,0,34.08,1.2,50.29,3.48,6.14.86,12.19,1.88,18.14,3.05h.01c11.63,2.27,22.88,5.11,33.69,8.47h.01c19.6,6.09,37.72,13.87,53.93,23.07,14.91,8.46,28.2,18.11,39.51,28.74"/>
      <path class="cls-6" d="M586.51,400.95h-.01c.05-.52.09-1.05.13-1.57.35-5.07.33-10.17-.11-15.28-.03-.47-.07-.95-.12-1.42-.17-1.68-.35-3.36-.54-5.04,3.14,7.22.65,23.31.65,23.31Z"/>
    </g>
  </g>
</svg>