<?xml version="1.0" encoding="UTF-8"?>
<svg id="Layer_2" data-name="Layer 2" xmlns="http://www.w3.org/2000/svg" viewBox="0 0 550.76 510.24">
  <defs>
    <style>
      .cls-1 {
        fill: #fff;
      }

      .cls-2 {
        fill: none;
        stroke: #fff;
        stroke-linecap: round;
        stroke-linejoin: round;
        stroke-width: 22px;
      }
    </style>
  </defs>
  <g id="Layer_2-2" data-name="Layer 2">
    <g id="Layer_1-2" data-name="Layer 1-2">
      <g>
        <g>
          <path class="cls-1" d="M207.57,420.62c18.64,0,33.81,15.17,33.81,33.81s-15.17,33.81-33.81,33.81-33.81-15.17-33.81-33.81,15.17-33.81,33.81-33.81M207.57,398.62c-30.82,0-55.81,24.99-55.81,55.81s24.99,55.81,55.81,55.81,55.81-24.99,55.81-55.81-24.99-55.81-55.81-55.81h0Z"/>
          <path class="cls-1" d="M436.9,420.62c18.64,0,33.81,15.17,33.81,33.81s-15.17,33.81-33.81,33.81-33.81-15.17-33.81-33.81,15.17-33.81,33.81-33.81M436.9,398.62c-30.82,0-55.81,24.99-55.81,55.81s24.99,55.81,55.81,55.81,55.81-24.99,55.81-55.81-24.99-55.81-55.81-55.81h0Z"/>
          <path class="cls-2" d="M503.57,380.14H182.62c-23.46,0-42.48-19.02-42.48-42.48h0c0-23.46,19.02-42.48,42.48-42.48h287.43l69.71-208H107L79.95,11H11"/>
          <line class="cls-2" x1="104.66" y1="80.6" x2="177.7" y2="295.48"/>
        </g>
        <line class="cls-2" x1="260.38" y1="87.19" x2="275.38" y2="295.19"/>
        <line class="cls-2" x1="383.05" y1="87.19" x2="365.14" y2="295.19"/>
        <line class="cls-2" x1="144.22" y1="196.97" x2="503.44" y2="196.97"/>
      </g>
    </g>
  </g>
</svg>