<?xml version="1.0" encoding="UTF-8"?>
<svg id="Layer_2" data-name="Layer 2" xmlns="http://www.w3.org/2000/svg" viewBox="0 0 3529.74 3219.64">
  <defs>
    <style>
      .cls-1 {
        fill: #fff;
      }
    </style>
  </defs>
  <g id="Layer_1-2" data-name="Layer 1">
    <path class="cls-1" d="M2222.09,103.98c-64.18-2.41-118.72,5.82-163.73,24.99-51.12,22.29-85.77,56.52-103.95,102.67-2.41,5.96-4.4,12.21-6.25,18.6-4.4,18.89-6.96,49.84-7.67,93.01-1,55.38-6.25,96.56-15.91,123.26-136.04,444.91-236.15,813.84-300.48,1106.8-8.81,36.5-8.66,56.8.28,60.78,10.65-4.69,19.6-20.88,26.84-48.71,4.55-16.33,9.37-43.31,14.34-80.66,5.26-36.21,9.23-58.79,12.07-67.59,4.26-20.17,13.21-48,26.98-83.93,11.08-26.84,18.32-47.15,21.87-61.06,3.98-22.58,12.5-49.13,25.56-79.95,11.79-31.95,16.76-30.53,15.2,4.12-.28,9.8-11.08,63.76-32.52,161.75-23.86,110.62-46.72,213.72-68.31,309.29-29.96,123.55-53.54,212.44-70.43,266.97-20.73,67.31-31.38,78.1-31.95,32.66-.43-17.18,6.39-49.28,20.31-96.14,10.08-36.64,16.19-63.05,18.32-79.24,4.69-27.55,2.13-48.28-7.81-62.06-7.53-1.7-14.2,5.68-20.02,22.15-2.7,10.22-6.67,26.56-11.93,49.28-2.41,13.78-3.98,22.44-4.83,26.27-.71,4.97-2.56,12.5-5.26,22.58-14.77,64.19-27.55,110.91-38.2,140.3-4.12,8.95-7.53,11.79-10.37,8.38-22.58-123.69-42.46-253.62-59.36-389.95-10.22-80.94-19.45-164.16-27.55-249.65-2.27-36.78-2.41-95.14-.14-175.38,1.42-152.66-3.55-263-15.05-330.87-36.78-153.94-87.19-211.31-151.1-171.97-53.54,32.24-116.02,132.35-187.31,300.34-56.38,130.93-117.01,301.05-182.05,510.23-36.78,116.73-81.37,268.11-133.77,453.99-19.17,69.44-31.1,111.9-35.93,127.09-58.08,267.68-111.48,397.62-160.18,389.95-41.18-5.82-76.97-103.38-107.36-292.39-25.42-150.24-44.45-336.7-57.09-559.36-11.36-195.83-14.63-333.29-9.94-412.53-1.56-56.52,5.54-148.25,21.73-275.35,15.62-119.57,23.86-207.76,24.57-264.42.71-96-13.06-175.38-41.18-237.86-37.92-49.28-90.46-77.54-157.49-84.64-8.81-1.56-22.01-4.12-39.48-7.24-35.22-7.81-61.91-9.51-79.95-5.4-19.88,10.51-40.19,30.39-60.78,59.36-19.46,27.69-32.52,52.97-38.91,75.69-5.54,19.03-7.24,40.19-4.97,63.34,1.28,13.35,5.68,33.8,13.21,61.49,7.53,27.55,12.07,48.57,13.49,63.34,13.77,79.81,23.29,173.67,28.69,281.46,2.56,65.04,4.68,164.44,6.39,298.36,1,191.99,6.11,334.14,14.91,426.87,9.8,140.59,35.92,272.79,78.53,396.77,13.64,40.47,20.31,76.82,19.6,108.78-4.97,37.49-4.12,66.32,2.7,86.62,3.69,11.93,11.5,23.43,23.72,34.65,9.37,8.95,15.62,16.33,18.74,22.15,3.41,10.79,3.55,25.56.43,44.31.14,1.14-.28,3.12-1.28,5.68-3.27,17.47-3.27,30.39,0,38.63,1.85,6.11,6.96,14.77,15.48,26.27,11.08,13.78,19.03,25.85,23.72,36.5,6.25,14.2,14.06,36.78,23.15,67.88,13.63,40.61,24.42,69.72,32.38,87.48,41.04,82.22,82.5,149.53,124.54,202.22,61.49,77.68,121.55,120,180.06,126.67,54.39,2.27,103.81-33.94,148.4-108.21,35.93-61.35,69.02-152.51,99.4-273.5,19.03-70.72,43.6-181.34,73.42-331.87,27.41-139.17,47.85-234.03,61.49-284.58,12.92-44.31,33.09-110.91,60.35-199.66,33.23-101.53,56.09-177.65,68.59-228.06,1-2.56,2.27-8.09,3.98-16.9,10.93-52.83,20.31-89.32,28.26-109.77,13.77-35.79,24.71-31.24,32.66,13.49,1.99,34.22,7.38,51.55,16.05,51.97,3.69.85,11.65-6.67,23.71-22.58,7.53-10.51,13.63-17.89,18.18-22.01,5.54-5.4,10.51-5.96,14.63-1.42,3.69,104.23,16.76,220.54,38.77,348.91,13.49,76.12,37.91,190.15,73.28,341.81,36.64,163.87,61.91,286.99,75.97,369.22,8.24,48.57,29.25,80.94,62.77,97.42l1.99,1.7c60.35,20.87,107.64,13.77,142.15-21.59.57-.43,1-.85,1.56-1.42,18.6-18.18,33.8-44.73,45.87-79.67-.28-2.98-.71-5.96-1.13-9.23-19.31-195.12-1.85-403.72,52.54-625.82,45.73-182.62,119.85-384.98,222.52-607.08,16.19-35.5,34.93-75.41,56.52-119.57,63.9-181.06,140.45-381.29,229.63-600.83,29.82-78.67,47.71-151.09,53.39-216.99.99-12.07,1.56-24,1.84-35.64,1.28-102.24-33.37-156.06-104.09-161.74ZM1984.23,512.53c-.71,4.97-.99,8.8-.71,11.22-10.79,79.81-27.41,138.6-49.56,176.37-1.28.14-2.42,1.42-3.41,3.98-10.65,17.04-20.31,25.42-28.97,24.99-9.23-6.53-9.09-30.53.57-72.14,8.52-38.91,20.87-76.97,37.06-114.32,17.04-39.76,31.1-60.07,42.18-61.2,3.98,3.27,4.97,13.78,2.84,31.1Z"/>
    <path class="cls-1" d="M3529.4,392.68c-2.7-94.58-47.71-172.25-134.91-232.89-17.89-12.78-40.33-24.28-67.17-34.65-16.61-4.97-41.61-12.07-74.84-20.88-3.69-.57-6.67-.99-9.09-1.42-9.52-2.7-21.87-7.1-37.07-13.21-17.32-7.67-30.25-12.21-38.77-13.49-4.69-1.85-13.21-2.7-25.7-2.13-17.18-1.42-28.69-3.12-34.51-5.4-9.09-5.11-10.22-13.92-3.27-26.41,13.35-22.72,8.38-34.65-14.91-35.78-75.83-6.82-160.46-8.24-254.19-4.12-113.6,5.82-205.06,19.6-274.07,41.04-39.19,12.5-64.04,24.85-74.55,36.78-6.11,7.67-9.23,19.6-9.23,35.78,1.56,21.3-2.99,39.19-13.92,53.54-45.02,42.6-54.25,85.91-27.55,129.65,1.99,2.84,4.55,6.96,7.38,12.35,10.51,20.16,19.46,34.65,26.7,43.17,11.5,14.2,24.14,24.14,38.2,30.11,8.1,3.69,19.88,7.38,35.36,11.08,26.41,5.4,44.59,12.5,54.39,21.44,2.13,1.56,5.39,4.54,9.8,8.95,11.36,14.2,24,20.45,37.91,18.89,68.73-11.64,128.66-26.41,179.92-44.59,5.54-4.12-1-6.25-19.46-6.67-14.77-1.14-27.12-1.14-37.2-.28-4.97.57-14.34.99-27.98,1.28-36.49,2.98-60.07,3.12-70.72.14-16.47-6.25-15.19-14.06,3.69-23.57,17.19-7.24,32.66-11.08,46.29-11.36,17.75-2.27,46.15-5.82,85.35-10.93,86.34-12.64,151.38-20.45,195.26-23.57,75.41-6.96,134.34-7.1,176.66-.57,18.04,4.12,33.23,10.22,45.58,18.32,13.63,8.24,16.9,14.34,10.22,18.32-13.35,5.4-38.91,6.39-76.82,2.98-10.93-.57-19.03-.57-24.14-.14-4.83-.71-10.93-.99-18.46-.99-13.49-.85-13.49-.14-.28,1.85,61.77,9.66,102.67,22.15,122.55,37.63,32.09,24.85,28.69,62.06-9.94,111.9-3.27,4.4-8.81,12.21-16.62,23.43-18.74,24.43-29.68,42.46-32.66,54.39,5.96,9.66,32.52-13.49,79.52-69.44,15.48-19.88,24.57-30.25,27.13-31.1,13.21-12.78,21.3-17.18,24.42-12.92,4.26,4.4,2.84,13.49-4.26,27.26-36.64,68.59-118.15,157.63-244.11,266.97-121.7,105.08-256.18,204.49-403.3,298.21-147.26,93.58-281.32,162.6-402.3,207.05-28.12,5.68-48.85,11.08-62.06,16.47-22.3,7.67-40.62,18.46-55.24,32.38-34.23,29.4-45.16,63.62-32.66,102.67,2.41,9.09,5.11,23.15,8.38,42.32,6.25,39.34,15.19,65.46,26.84,78.53,27.41,22.86,69.58,26.84,126.38,12.21,32.38-8.66,84.64-30.25,156.92-64.9,72.42-34.65,122.55-54.1,150.53-58.51,19.45-5.68,34.36-5.82,44.59-.57,5.68,3.41,11.08,9.23,15.91,17.47,4.97,8.09,10.08,11.36,15.33,9.8,4.12-3.12,12.64-9.8,25.42-20.31,11.36-9.37,19.17-15.62,23.29-18.6,8.09-3.69,11.93-1.28,11.93,7.38-.57,11.08-7.52,28.54-21.16,52.54-6.82,11.36-17.47,28.83-32.38,52.54-43.74,73.84-75.26,129.65-94.86,167.57-34.36,61.49-62.34,118.57-84.21,170.98-13.06,28.97-26.56,75.83-40.33,140.59-14.63,69.72-29.82,120-45.73,150.95-16.9,28.4-28.83,42.03-36.21,40.9-7.24-1.14-6.39-14.63,2.56-40.47,5.26-17.75,15.48-51.55,30.68-101.25,17.89-59.22,29.68-99.55,35.5-120.99,9.23-43.17,7.24-58.93-5.68-47.29-13.07,12.78-24.57,38.91-34.51,78.25l-.28,1.85c-16.9,53.11-31.52,107.92-44.02,164.3-13.77,48.71-14.77,86.91-2.99,114.74,1,1.42,1.42,2.7,1.28,3.98,7.24,24.71,8.38,41.61,3.27,50.7-3.27,4.4-9.66,5.96-19.31,4.4-8.52-1.28-14.06-.85-16.9,1.14-2.56.85-3.55,3.12-2.98,6.96,1.56,6.53,7.81,22.29,18.75,47.57,9.09,21.16,12.35,44.02,9.8,68.45-1.42,17.18-5.25,41.89-11.5,74.41-11.65,50.27-14.91,87.62-9.94,111.9,1,8.8,3.27,22.3,6.68,40.05,6.39,23.29,9.8,41.32,10.37,53.68,11.22,119.57,26.55,208.04,46.15,265.69,30.96,95.29,82.65,161.6,155.07,198.81,2.13,1.56,4.97,3.27,8.52,5.11,21.58,11.93,37.77,19.45,48.57,22.44,17.75,5.11,36.35,5.54,55.52,1.14,1.42-.99,4.69-2.41,9.94-3.98,18.04-4.69,29.96-9.66,35.79-14.91,9.8-7.24,11.5-18.04,5.11-32.66-92.3-171.83-138.46-365.52-138.46-581.23-1.85-196.11,33.94-402.59,107.35-619.29,65.32-198.1,156.92-392.22,274.36-582.23,17.61-25.7,24-50.84,19.17-75.12-4.55-26.7-20.31-44.73-47.43-53.82-16.19-7.53-26.27-14.63-30.1-21.44-3.83-7.95-2.27-22.01,4.55-42.03,5.96-13.92,8.09-23.57,6.39-28.83-6.11-17.04-4.97-31.67,3.12-44.02,6.39-8.95,18.6-20.16,36.78-33.37,2.98-3.27,5.26-5.4,6.53-6.39,109.49-82.22,194.84-148.4,255.9-198.38,102.39-84.49,180.07-157.91,233.18-220.39,76.4-84.78,112.47-173.39,108.21-265.84ZM2284.44,255.22c-7.95-4.97-21.59-8.95-40.9-11.93-11.93-3.12-20.31-5.11-25.14-5.82-7.1-2.27-16.76-8.09-28.97-17.47-4.4-3.12-8.38-5.68-11.79-7.38l-1.84-.28c-10.08-6.53-22.44-7.81-36.64-3.83-9.09,2.27-21.87,8.95-38.48,20.02-25.7,14.63-44.88,21.59-57.09,20.88-6.25.28-18.32-2.27-36.07-7.53-22.3-5.68-39.9-9.23-53.11-10.22-2.41,5.96-4.4,12.21-6.25,18.6-4.4,18.89-6.96,49.84-7.67,93.01-1,55.38-6.25,96.56-15.91,123.26-136.04,444.91-236.15,813.84-300.48,1106.8-8.81,36.5-8.66,56.8.28,60.78,10.65-4.69,19.6-20.88,26.84-48.71,4.55-16.33,9.37-43.31,14.34-80.66,5.26-36.21,9.23-58.79,12.07-67.59,4.26-20.17,13.21-48,26.98-83.93,11.08-26.84,18.32-47.15,21.87-61.06,3.98-22.58,12.5-49.13,25.56-79.95,11.79-31.95,16.76-30.53,15.2,4.12-.28,9.8-11.08,63.76-32.52,161.75-23.86,110.62-46.72,213.72-68.31,309.29-29.96,123.55-53.54,212.44-70.43,266.97-20.73,67.31-31.38,78.1-31.95,32.66-.43-17.18,6.39-49.28,20.31-96.14,10.08-36.64,16.19-63.05,18.32-79.24,4.69-27.55,2.13-48.28-7.81-62.06-7.53-1.7-14.2,5.68-20.02,22.15-2.7,10.22-6.67,26.56-11.93,49.28-2.41,13.78-3.98,22.44-4.83,26.27-.71,4.97-2.56,12.5-5.26,22.58-14.77,64.19-27.55,110.91-38.2,140.3-4.12,8.95-7.53,11.79-10.37,8.38-22.58-123.69-42.46-253.62-59.36-389.95-23.71,117.86-24.14,212.16-1.56,283.02.28,6.25-1.84,15.76-6.25,28.83-1.99,4.54-3.13,7.53-3.27,8.66-1,6.11-2.13,14.06-3.69,23.71-.85,5.96-1.71,10.79-2.27,14.48-.71,4.83-2.56,12.64-5.39,23.29-4.12,18.03-5.82,33.23-5.26,45.73,1.28,7.67,4.4,19.31,9.37,34.93,1.56,6.39,3.27,11.08,5.39,13.77,7.95,28.54,12.07,73.28,12.64,134.05-.28,17.33.28,29.82,1.56,37.49-.28,65.61,17.32,135.9,52.83,210.88,2.84,5.4,6.53,13.35,11.22,24,7.1,17.18,13.35,29.4,18.46,36.35,7.95,12.35,18.46,20.88,31.38,25.28,27.55,8.8,62.05,5.11,103.38-11.08,4.69-1.7,9.51-3.83,14.48-5.96,16.05-7.38,26.55-19.31,31.67-35.93,2.41-9.23,2.84-22.15,1.28-39.19-.28-2.98-.71-5.96-1.13-9.23-19.31-195.12-1.85-403.72,52.54-625.82,45.73-182.62,119.85-384.98,222.52-607.08,16.19-35.5,34.93-75.41,56.52-119.57,63.9-181.06,140.45-381.29,229.63-600.83,29.82-78.67,47.71-151.09,53.39-216.99-13.49-23-26.84-38.48-39.9-46.15Z"/>
  </g>
</svg>